<svg width="22" height="22" viewBox="0 0 22 22" fill="none" xmlns="http://www.w3.org/2000/svg">
<path d="M11 21C16.5228 21 21 16.5228 21 11C21 5.47715 16.5228 1 11 1C5.47715 1 1 5.47715 1 11C1 16.5228 5.47715 21 11 21Z" stroke="black" stroke-width="1.2" stroke-linecap="round" stroke-linejoin="round"/>
<path d="M1.56934 7.6665H20.4303" stroke="black" stroke-width="1.2" stroke-linecap="round" stroke-linejoin="round"/>
<path d="M1.56982 14.3335H20.4307" stroke="black" stroke-width="1.2" stroke-linecap="round" stroke-linejoin="round"/>
<path d="M11 20.7317C13.3012 20.7317 15.1667 16.3747 15.1667 11.0001C15.1667 5.62552 13.3012 1.26855 11 1.26855C8.69885 1.26855 6.83337 5.62552 6.83337 11.0001C6.83337 16.3747 8.69885 20.7317 11 20.7317Z" stroke="black" stroke-width="1.2" stroke-linecap="round" stroke-linejoin="round"/>
</svg>
